<?xml version="1.0" encoding="utf-8"?>
<!-- Generator: Adobe Illustrator 26.3.1, SVG Export Plug-In . SVG Version: 6.00 Build 0)  -->
<svg version="1.1" id="Ebene_1" xmlns="http://www.w3.org/2000/svg" xmlns:xlink="http://www.w3.org/1999/xlink" x="0px" y="0px"
	 viewBox="0 0 381.66 72.57" style="enable-background:new 0 0 381.66 72.57;" xml:space="preserve" fill="#ffffff">
<g>
	<path d="M51.36,60.76H26.23l-3.49,11.82H0.15l26.92-71.6h24.14l26.91,71.6H54.94L51.36,60.76z M46.77,45.27l-7.91-25.74
		l-7.82,25.74H46.77z"/>
	<path d="M80.12,0.97h67.27v17.68h-22.57v53.92h-22.13V18.65H80.12V0.97z"/>
	<path d="M157.51,0.97h22.13v25.06h24.18V0.97h22.23v71.6h-22.23V43.61h-24.18v28.96h-22.13V0.97z"/>
	<path d="M240.71,0.97h59.31v15.29h-37.13v11.38h34.44v14.6h-34.44v14.12h38.21v16.22h-60.39V0.97z"/>
	<path d="M313.16,0.97h20.67l26.97,39.61V0.97h20.86v71.6H360.8l-26.82-39.31v39.31h-20.81V0.97z"/>
</g>
</svg>
